<svg width="849" height="1117" viewBox="0 0 849 1117" fill="none" xmlns="http://www.w3.org/2000/svg">
  <path
    d="M0 83C0 37.1604 37.1604 0 83 0H766C811.84 0 849 37.1604 849 83V560.289V1034C849 1079.84 811.84 1117 766 1117H83C37.1603 1117 0 1079.84 0 1034V83Z"
    fill="url(#paint0_linear_98_31391)" />
  <path
    d="M84.0586 452.873H59.3906V410.041H84.0586V417.482H68.4727V426.886H82.9746V434.328H68.4727V445.373H84.0586V452.873ZM130.787 419.504C134.498 419.504 137.301 420.461 139.195 422.375C141.109 424.269 142.066 427.316 142.066 431.515V452.873H133.102V433.742C133.102 431.398 132.701 429.631 131.9 428.439C131.1 427.248 129.859 426.652 128.18 426.652C125.816 426.652 124.137 427.502 123.141 429.201C122.145 430.881 121.646 433.293 121.646 436.437V452.873H112.711V433.742C112.711 432.179 112.535 430.871 112.184 429.816C111.832 428.761 111.295 427.97 110.572 427.443C109.85 426.916 108.922 426.652 107.789 426.652C106.129 426.652 104.82 427.072 103.863 427.912C102.926 428.732 102.252 429.953 101.842 431.574C101.451 433.176 101.256 435.138 101.256 437.463V452.873H92.3203V420.119H99.1465L100.348 424.308H100.846C101.51 423.176 102.34 422.258 103.336 421.554C104.352 420.851 105.465 420.334 106.676 420.002C107.887 419.67 109.117 419.504 110.367 419.504C112.77 419.504 114.801 419.894 116.461 420.676C118.141 421.457 119.43 422.668 120.328 424.308H121.119C122.096 422.629 123.473 421.408 125.25 420.646C127.047 419.885 128.893 419.504 130.787 419.504ZM169.488 419.504C173.18 419.504 176.158 420.939 178.424 423.81C180.709 426.681 181.852 430.89 181.852 436.437C181.852 440.148 181.314 443.273 180.24 445.812C179.166 448.332 177.682 450.236 175.787 451.525C173.893 452.814 171.715 453.459 169.254 453.459C167.672 453.459 166.314 453.263 165.182 452.873C164.049 452.463 163.082 451.945 162.281 451.32C161.48 450.676 160.787 449.992 160.201 449.269H159.732C159.889 450.051 160.006 450.851 160.084 451.672C160.162 452.492 160.201 453.293 160.201 454.074V467.287H151.266V420.119H158.531L159.791 424.367H160.201C160.787 423.488 161.5 422.677 162.34 421.935C163.18 421.193 164.186 420.607 165.357 420.177C166.549 419.728 167.926 419.504 169.488 419.504ZM166.617 426.652C165.055 426.652 163.814 426.974 162.896 427.619C161.979 428.263 161.305 429.23 160.875 430.519C160.465 431.808 160.24 433.439 160.201 435.412V436.379C160.201 438.488 160.396 440.275 160.787 441.74C161.197 443.205 161.871 444.318 162.809 445.08C163.766 445.842 165.074 446.222 166.734 446.222C168.102 446.222 169.225 445.842 170.104 445.08C170.982 444.318 171.637 443.205 172.066 441.74C172.516 440.256 172.74 438.449 172.74 436.32C172.74 433.117 172.242 430.705 171.246 429.084C170.25 427.463 168.707 426.652 166.617 426.652ZM219 436.437C219 439.172 218.629 441.594 217.887 443.703C217.164 445.812 216.1 447.599 214.693 449.064C213.307 450.51 211.627 451.603 209.654 452.345C207.701 453.088 205.494 453.459 203.033 453.459C200.729 453.459 198.609 453.088 196.676 452.345C194.762 451.603 193.092 450.51 191.666 449.064C190.26 447.599 189.166 445.812 188.385 443.703C187.623 441.594 187.242 439.172 187.242 436.437C187.242 432.804 187.887 429.728 189.176 427.209C190.465 424.689 192.301 422.775 194.684 421.467C197.066 420.158 199.908 419.504 203.209 419.504C206.275 419.504 208.99 420.158 211.354 421.467C213.736 422.775 215.602 424.689 216.949 427.209C218.316 429.728 219 432.804 219 436.437ZM196.354 436.437C196.354 438.586 196.588 440.392 197.057 441.857C197.525 443.322 198.258 444.426 199.254 445.168C200.25 445.91 201.549 446.281 203.15 446.281C204.732 446.281 206.012 445.91 206.988 445.168C207.984 444.426 208.707 443.322 209.156 441.857C209.625 440.392 209.859 438.586 209.859 436.437C209.859 434.269 209.625 432.472 209.156 431.047C208.707 429.601 207.984 428.517 206.988 427.795C205.992 427.072 204.693 426.711 203.092 426.711C200.729 426.711 199.01 427.521 197.936 429.142C196.881 430.763 196.354 433.195 196.354 436.437ZM253.307 452.873L250.787 441.418C250.65 440.734 250.426 439.728 250.113 438.4C249.801 437.052 249.459 435.617 249.088 434.094C248.736 432.551 248.404 431.125 248.092 429.816C247.799 428.508 247.584 427.551 247.447 426.945H247.184C247.047 427.551 246.832 428.508 246.539 429.816C246.246 431.125 245.914 432.551 245.543 434.094C245.191 435.636 244.859 437.092 244.547 438.459C244.234 439.806 244 440.832 243.844 441.535L241.207 452.873H231.598L222.281 420.119H231.188L234.967 434.621C235.221 435.636 235.465 436.847 235.699 438.254C235.934 439.64 236.139 440.988 236.314 442.297C236.51 443.586 236.656 444.611 236.754 445.373H236.988C237.027 444.806 237.105 444.054 237.223 443.117C237.359 442.179 237.506 441.213 237.662 440.217C237.838 439.201 237.994 438.293 238.131 437.492C238.287 436.672 238.404 436.115 238.482 435.822L242.525 420.119H252.369L256.207 435.822C256.344 436.388 256.52 437.287 256.734 438.517C256.969 439.748 257.174 441.017 257.35 442.326C257.525 443.615 257.623 444.631 257.643 445.373H257.877C257.955 444.709 258.092 443.722 258.287 442.414C258.482 441.105 258.707 439.738 258.961 438.312C259.234 436.867 259.508 435.636 259.781 434.621L263.707 420.119H272.467L263.033 452.873H253.307ZM291.275 419.504C294.303 419.504 296.91 420.09 299.098 421.261C301.285 422.414 302.975 424.094 304.166 426.301C305.357 428.508 305.953 431.203 305.953 434.386V438.722H284.83C284.928 441.242 285.68 443.224 287.086 444.67C288.512 446.095 290.484 446.808 293.004 446.808C295.094 446.808 297.008 446.594 298.746 446.164C300.484 445.734 302.271 445.09 304.107 444.23V451.144C302.486 451.945 300.787 452.531 299.01 452.902C297.252 453.273 295.113 453.459 292.594 453.459C289.312 453.459 286.402 452.853 283.863 451.642C281.344 450.431 279.361 448.586 277.916 446.105C276.49 443.625 275.777 440.5 275.777 436.73C275.777 432.902 276.422 429.719 277.711 427.179C279.02 424.621 280.836 422.707 283.16 421.437C285.484 420.148 288.189 419.504 291.275 419.504ZM291.334 425.861C289.596 425.861 288.15 426.418 286.998 427.531C285.865 428.644 285.211 430.392 285.035 432.775H297.574C297.555 431.447 297.311 430.265 296.842 429.23C296.393 428.195 295.709 427.375 294.791 426.769C293.893 426.164 292.74 425.861 291.334 425.861ZM331.5 419.504C331.949 419.504 332.467 419.533 333.053 419.592C333.658 419.631 334.146 419.689 334.518 419.767L333.844 428.146C333.551 428.049 333.131 427.98 332.584 427.941C332.057 427.883 331.598 427.853 331.207 427.853C330.055 427.853 328.932 428 327.838 428.293C326.764 428.586 325.797 429.064 324.938 429.728C324.078 430.373 323.395 431.232 322.887 432.306C322.398 433.361 322.154 434.66 322.154 436.203V452.873H313.219V420.119H319.986L321.305 425.627H321.744C322.389 424.513 323.189 423.498 324.146 422.58C325.123 421.642 326.227 420.9 327.457 420.353C328.707 419.787 330.055 419.504 331.5 419.504ZM349.4 420.119V452.873H340.465V420.119H349.4ZM344.947 407.287C346.275 407.287 347.418 407.599 348.375 408.224C349.332 408.83 349.811 409.972 349.811 411.652C349.811 413.312 349.332 414.465 348.375 415.109C347.418 415.734 346.275 416.047 344.947 416.047C343.6 416.047 342.447 415.734 341.49 415.109C340.553 414.465 340.084 413.312 340.084 411.652C340.084 409.972 340.553 408.83 341.49 408.224C342.447 407.599 343.6 407.287 344.947 407.287ZM377.408 419.504C380.904 419.504 383.717 420.461 385.846 422.375C387.975 424.269 389.039 427.316 389.039 431.515V452.873H380.104V433.742C380.104 431.398 379.674 429.631 378.814 428.439C377.975 427.248 376.646 426.652 374.83 426.652C372.096 426.652 370.23 427.58 369.234 429.435C368.238 431.291 367.74 433.967 367.74 437.463V452.873H358.805V420.119H365.631L366.832 424.308H367.33C368.033 423.176 368.902 422.258 369.938 421.554C370.992 420.851 372.154 420.334 373.424 420.002C374.713 419.67 376.041 419.504 377.408 419.504ZM407.818 467.287C403.248 467.287 399.752 466.486 397.33 464.885C394.928 463.302 393.727 461.076 393.727 458.205C393.727 456.232 394.342 454.582 395.572 453.254C396.803 451.926 398.609 450.978 400.992 450.412C400.074 450.021 399.273 449.386 398.59 448.508C397.906 447.609 397.564 446.662 397.564 445.666C397.564 444.416 397.926 443.381 398.648 442.56C399.371 441.72 400.416 440.9 401.783 440.099C400.064 439.357 398.697 438.166 397.682 436.525C396.686 434.885 396.188 432.951 396.188 430.724C396.188 428.342 396.705 426.32 397.74 424.66C398.795 422.98 400.318 421.701 402.311 420.822C404.322 419.943 406.764 419.504 409.635 419.504C410.24 419.504 410.943 419.543 411.744 419.621C412.545 419.699 413.277 419.787 413.941 419.885C414.625 419.982 415.084 420.06 415.318 420.119H426.744V424.66L421.617 425.978C422.086 426.701 422.438 427.472 422.672 428.293C422.906 429.113 423.023 429.982 423.023 430.9C423.023 434.416 421.793 437.16 419.332 439.133C416.891 441.086 413.492 442.062 409.137 442.062C408.102 442.004 407.125 441.926 406.207 441.828C405.758 442.179 405.416 442.551 405.182 442.941C404.947 443.332 404.83 443.742 404.83 444.172C404.83 444.601 405.006 444.963 405.357 445.256C405.729 445.529 406.275 445.744 406.998 445.9C407.74 446.037 408.658 446.105 409.752 446.105H415.318C418.912 446.105 421.646 446.877 423.521 448.42C425.416 449.963 426.363 452.228 426.363 455.217C426.363 459.045 424.762 462.013 421.559 464.123C418.375 466.232 413.795 467.287 407.818 467.287ZM408.199 461.457C410.328 461.457 412.154 461.252 413.678 460.842C415.221 460.451 416.402 459.885 417.223 459.142C418.043 458.42 418.453 457.551 418.453 456.535C418.453 455.715 418.209 455.06 417.721 454.572C417.252 454.103 416.529 453.771 415.553 453.576C414.596 453.381 413.365 453.283 411.861 453.283H407.232C406.139 453.283 405.152 453.459 404.273 453.81C403.414 454.162 402.73 454.65 402.223 455.275C401.715 455.92 401.461 456.662 401.461 457.502C401.461 458.732 402.047 459.699 403.219 460.402C404.41 461.105 406.07 461.457 408.199 461.457ZM409.635 436.613C411.314 436.613 412.545 436.095 413.326 435.06C414.107 434.025 414.498 432.619 414.498 430.842C414.498 428.869 414.088 427.394 413.268 426.418C412.467 425.422 411.256 424.924 409.635 424.924C407.994 424.924 406.764 425.422 405.943 426.418C405.123 427.394 404.713 428.869 404.713 430.842C404.713 432.619 405.113 434.025 405.914 435.06C406.734 436.095 407.975 436.613 409.635 436.613ZM473.121 452.873H448.453V410.041H473.121V417.482H457.535V426.886H472.037V434.328H457.535V445.373H473.121V452.873ZM491.754 453.459C488.102 453.459 485.123 452.033 482.818 449.181C480.533 446.31 479.391 442.101 479.391 436.554C479.391 430.949 480.553 426.711 482.877 423.84C485.201 420.949 488.238 419.504 491.988 419.504C493.551 419.504 494.928 419.719 496.119 420.148C497.311 420.578 498.336 421.154 499.195 421.877C500.074 422.599 500.816 423.41 501.422 424.308H501.715C501.598 423.683 501.451 422.765 501.275 421.554C501.119 420.324 501.041 419.064 501.041 417.775V407.287H510.006V452.873H503.15L501.422 448.625H501.041C500.475 449.523 499.762 450.344 498.902 451.086C498.062 451.808 497.057 452.385 495.885 452.814C494.713 453.244 493.336 453.459 491.754 453.459ZM494.889 446.34C497.33 446.34 499.049 445.617 500.045 444.172C501.061 442.707 501.598 440.51 501.656 437.58V436.613C501.656 433.429 501.168 430.998 500.191 429.318C499.215 427.619 497.398 426.769 494.742 426.769C492.77 426.769 491.227 427.619 490.113 429.318C489 431.017 488.443 433.469 488.443 436.672C488.443 439.875 489 442.287 490.113 443.908C491.246 445.529 492.838 446.34 494.889 446.34ZM549.41 420.119V452.873H542.555L541.354 448.683H540.885C540.182 449.797 539.303 450.705 538.248 451.408C537.193 452.111 536.031 452.629 534.762 452.961C533.492 453.293 532.174 453.459 530.807 453.459C528.463 453.459 526.422 453.049 524.684 452.228C522.945 451.388 521.588 450.09 520.611 448.332C519.654 446.574 519.176 444.289 519.176 441.476V420.119H528.111V439.25C528.111 441.594 528.531 443.361 529.371 444.552C530.211 445.744 531.549 446.34 533.385 446.34C535.201 446.34 536.627 445.929 537.662 445.109C538.697 444.269 539.42 443.049 539.83 441.447C540.26 439.826 540.475 437.853 540.475 435.529V420.119H549.41ZM572.086 453.459C568.844 453.459 566.08 452.873 563.795 451.701C561.51 450.51 559.771 448.674 558.58 446.193C557.389 443.713 556.793 440.539 556.793 436.672C556.793 432.668 557.467 429.406 558.814 426.886C560.182 424.347 562.066 422.482 564.469 421.291C566.891 420.099 569.693 419.504 572.877 419.504C575.143 419.504 577.096 419.728 578.736 420.177C580.396 420.607 581.842 421.125 583.072 421.73L580.436 428.644C579.029 428.078 577.721 427.619 576.51 427.267C575.299 426.896 574.088 426.711 572.877 426.711C571.314 426.711 570.016 427.082 568.98 427.824C567.945 428.547 567.174 429.64 566.666 431.105C566.158 432.57 565.904 434.406 565.904 436.613C565.904 438.781 566.178 440.578 566.725 442.004C567.271 443.429 568.062 444.494 569.098 445.197C570.133 445.881 571.393 446.222 572.877 446.222C574.732 446.222 576.383 445.978 577.828 445.49C579.273 444.982 580.68 444.279 582.047 443.381V451.027C580.68 451.886 579.244 452.502 577.74 452.873C576.256 453.263 574.371 453.459 572.086 453.459ZM603.082 419.445C607.477 419.445 610.846 420.402 613.189 422.316C615.533 424.23 616.705 427.14 616.705 431.047V452.873H610.465L608.736 448.42H608.502C607.564 449.592 606.607 450.549 605.631 451.291C604.654 452.033 603.531 452.58 602.262 452.931C600.992 453.283 599.449 453.459 597.633 453.459C595.699 453.459 593.961 453.088 592.418 452.345C590.895 451.603 589.693 450.47 588.814 448.947C587.936 447.404 587.496 445.451 587.496 443.088C587.496 439.611 588.717 437.052 591.158 435.412C593.6 433.752 597.262 432.834 602.145 432.658L607.828 432.482V431.047C607.828 429.328 607.379 428.068 606.48 427.267C605.582 426.467 604.332 426.066 602.73 426.066C601.148 426.066 599.596 426.291 598.072 426.74C596.549 427.189 595.025 427.756 593.502 428.439L590.543 422.404C592.281 421.486 594.225 420.763 596.373 420.236C598.541 419.709 600.777 419.445 603.082 419.445ZM607.828 437.697L604.371 437.814C601.48 437.892 599.469 438.41 598.336 439.367C597.223 440.324 596.666 441.584 596.666 443.146C596.666 444.513 597.066 445.49 597.867 446.076C598.668 446.642 599.713 446.926 601.002 446.926C602.916 446.926 604.527 446.359 605.836 445.226C607.164 444.094 607.828 442.482 607.828 440.392V437.697ZM639.732 446.34C640.709 446.34 641.656 446.242 642.574 446.047C643.512 445.851 644.439 445.607 645.357 445.314V451.965C644.4 452.394 643.209 452.746 641.783 453.019C640.377 453.312 638.834 453.459 637.154 453.459C635.201 453.459 633.443 453.146 631.881 452.521C630.338 451.877 629.117 450.773 628.219 449.211C627.34 447.629 626.9 445.431 626.9 442.619V426.828H622.623V423.049L627.545 420.06L630.123 413.146H635.836V420.119H645.006V426.828H635.836V442.619C635.836 443.869 636.188 444.806 636.891 445.431C637.613 446.037 638.561 446.34 639.732 446.34ZM681.773 436.437C681.773 439.172 681.402 441.594 680.66 443.703C679.938 445.812 678.873 447.599 677.467 449.064C676.08 450.51 674.4 451.603 672.428 452.345C670.475 453.088 668.268 453.459 665.807 453.459C663.502 453.459 661.383 453.088 659.449 452.345C657.535 451.603 655.865 450.51 654.439 449.064C653.033 447.599 651.939 445.812 651.158 443.703C650.396 441.594 650.016 439.172 650.016 436.437C650.016 432.804 650.66 429.728 651.949 427.209C653.238 424.689 655.074 422.775 657.457 421.467C659.84 420.158 662.682 419.504 665.982 419.504C669.049 419.504 671.764 420.158 674.127 421.467C676.51 422.775 678.375 424.689 679.723 427.209C681.09 429.728 681.773 432.804 681.773 436.437ZM659.127 436.437C659.127 438.586 659.361 440.392 659.83 441.857C660.299 443.322 661.031 444.426 662.027 445.168C663.023 445.91 664.322 446.281 665.924 446.281C667.506 446.281 668.785 445.91 669.762 445.168C670.758 444.426 671.48 443.322 671.93 441.857C672.398 440.392 672.633 438.586 672.633 436.437C672.633 434.269 672.398 432.472 671.93 431.047C671.48 429.601 670.758 428.517 669.762 427.795C668.766 427.072 667.467 426.711 665.865 426.711C663.502 426.711 661.783 427.521 660.709 429.142C659.654 430.763 659.127 433.195 659.127 436.437ZM707.438 419.504C707.887 419.504 708.404 419.533 708.99 419.592C709.596 419.631 710.084 419.689 710.455 419.767L709.781 428.146C709.488 428.049 709.068 427.98 708.521 427.941C707.994 427.883 707.535 427.853 707.145 427.853C705.992 427.853 704.869 428 703.775 428.293C702.701 428.586 701.734 429.064 700.875 429.728C700.016 430.373 699.332 431.232 698.824 432.306C698.336 433.361 698.092 434.66 698.092 436.203V452.873H689.156V420.119H695.924L697.242 425.627H697.682C698.326 424.513 699.127 423.498 700.084 422.58C701.061 421.642 702.164 420.9 703.395 420.353C704.645 419.787 705.992 419.504 707.438 419.504ZM739.254 443.146C739.254 445.373 738.727 447.258 737.672 448.801C736.637 450.324 735.084 451.486 733.014 452.287C730.943 453.068 728.365 453.459 725.279 453.459C722.994 453.459 721.031 453.312 719.391 453.019C717.77 452.726 716.129 452.238 714.469 451.554V444.172C716.246 444.972 718.15 445.636 720.182 446.164C722.232 446.672 724.029 446.926 725.572 446.926C727.311 446.926 728.551 446.672 729.293 446.164C730.055 445.636 730.436 444.953 730.436 444.113C730.436 443.566 730.279 443.078 729.967 442.648C729.674 442.199 729.029 441.701 728.033 441.154C727.037 440.588 725.475 439.855 723.346 438.957C721.295 438.097 719.605 437.228 718.277 436.349C716.969 435.47 715.992 434.435 715.348 433.244C714.723 432.033 714.41 430.5 714.41 428.644C714.41 425.617 715.582 423.342 717.926 421.818C720.289 420.275 723.443 419.504 727.389 419.504C729.42 419.504 731.354 419.709 733.189 420.119C735.045 420.529 736.949 421.183 738.902 422.082L736.207 428.527C734.586 427.824 733.053 427.248 731.607 426.799C730.182 426.349 728.727 426.125 727.242 426.125C725.934 426.125 724.947 426.301 724.283 426.652C723.619 427.004 723.287 427.541 723.287 428.263C723.287 428.791 723.453 429.26 723.785 429.67C724.137 430.08 724.801 430.539 725.777 431.047C726.773 431.535 728.229 432.17 730.143 432.951C731.998 433.713 733.609 434.513 734.977 435.353C736.344 436.174 737.398 437.199 738.141 438.429C738.883 439.64 739.254 441.213 739.254 443.146ZM59.3906 548.873V506.041H68.4727V548.873H59.3906ZM97.1543 515.504C100.65 515.504 103.463 516.461 105.592 518.375C107.721 520.269 108.785 523.316 108.785 527.515V548.873H99.8496V529.742C99.8496 527.398 99.4199 525.631 98.5605 524.439C97.7207 523.248 96.3926 522.652 94.5762 522.652C91.8418 522.652 89.9766 523.58 88.9805 525.435C87.9844 527.291 87.4863 529.967 87.4863 533.463V548.873H78.5508V516.119H85.377L86.5781 520.308H87.0762C87.7793 519.176 88.6484 518.258 89.6836 517.554C90.7383 516.851 91.9004 516.334 93.1699 516.002C94.459 515.67 95.7871 515.504 97.1543 515.504ZM140.836 539.146C140.836 541.373 140.309 543.258 139.254 544.801C138.219 546.324 136.666 547.486 134.596 548.287C132.525 549.068 129.947 549.459 126.861 549.459C124.576 549.459 122.613 549.312 120.973 549.019C119.352 548.726 117.711 548.238 116.051 547.554V540.172C117.828 540.972 119.732 541.636 121.764 542.164C123.814 542.672 125.611 542.926 127.154 542.926C128.893 542.926 130.133 542.672 130.875 542.164C131.637 541.636 132.018 540.953 132.018 540.113C132.018 539.566 131.861 539.078 131.549 538.648C131.256 538.199 130.611 537.701 129.615 537.154C128.619 536.588 127.057 535.855 124.928 534.957C122.877 534.097 121.188 533.228 119.859 532.349C118.551 531.47 117.574 530.435 116.93 529.244C116.305 528.033 115.992 526.5 115.992 524.644C115.992 521.617 117.164 519.342 119.508 517.818C121.871 516.275 125.025 515.504 128.971 515.504C131.002 515.504 132.936 515.709 134.771 516.119C136.627 516.529 138.531 517.183 140.484 518.082L137.789 524.527C136.168 523.824 134.635 523.248 133.189 522.799C131.764 522.349 130.309 522.125 128.824 522.125C127.516 522.125 126.529 522.301 125.865 522.652C125.201 523.004 124.869 523.541 124.869 524.263C124.869 524.791 125.035 525.26 125.367 525.67C125.719 526.08 126.383 526.539 127.359 527.047C128.355 527.535 129.811 528.17 131.725 528.951C133.58 529.713 135.191 530.513 136.559 531.353C137.926 532.174 138.98 533.199 139.723 534.429C140.465 535.64 140.836 537.213 140.836 539.146ZM166.031 515.504C169.723 515.504 172.701 516.939 174.967 519.81C177.252 522.681 178.395 526.89 178.395 532.437C178.395 536.148 177.857 539.273 176.783 541.812C175.709 544.332 174.225 546.236 172.33 547.525C170.436 548.814 168.258 549.459 165.797 549.459C164.215 549.459 162.857 549.263 161.725 548.873C160.592 548.463 159.625 547.945 158.824 547.32C158.023 546.676 157.33 545.992 156.744 545.269H156.275C156.432 546.051 156.549 546.851 156.627 547.672C156.705 548.492 156.744 549.293 156.744 550.074V563.287H147.809V516.119H155.074L156.334 520.367H156.744C157.33 519.488 158.043 518.677 158.883 517.935C159.723 517.193 160.729 516.607 161.9 516.177C163.092 515.728 164.469 515.504 166.031 515.504ZM163.16 522.652C161.598 522.652 160.357 522.974 159.439 523.619C158.521 524.263 157.848 525.23 157.418 526.519C157.008 527.808 156.783 529.439 156.744 531.412V532.379C156.744 534.488 156.939 536.275 157.33 537.74C157.74 539.205 158.414 540.318 159.352 541.08C160.309 541.842 161.617 542.222 163.277 542.222C164.645 542.222 165.768 541.842 166.646 541.08C167.525 540.318 168.18 539.205 168.609 537.74C169.059 536.256 169.283 534.449 169.283 532.32C169.283 529.117 168.785 526.705 167.789 525.084C166.793 523.463 165.25 522.652 163.16 522.652ZM194.713 516.119V548.873H185.777V516.119H194.713ZM190.26 503.287C191.588 503.287 192.73 503.599 193.688 504.224C194.645 504.83 195.123 505.972 195.123 507.652C195.123 509.312 194.645 510.465 193.688 511.109C192.73 511.734 191.588 512.047 190.26 512.047C188.912 512.047 187.76 511.734 186.803 511.109C185.865 510.465 185.396 509.312 185.396 507.652C185.396 505.972 185.865 504.83 186.803 504.224C187.76 503.599 188.912 503.287 190.26 503.287ZM222.398 515.504C222.848 515.504 223.365 515.533 223.951 515.592C224.557 515.631 225.045 515.689 225.416 515.767L224.742 524.146C224.449 524.049 224.029 523.98 223.482 523.941C222.955 523.883 222.496 523.853 222.105 523.853C220.953 523.853 219.83 524 218.736 524.293C217.662 524.586 216.695 525.064 215.836 525.728C214.977 526.373 214.293 527.232 213.785 528.306C213.297 529.361 213.053 530.66 213.053 532.203V548.873H204.117V516.119H210.885L212.203 521.627H212.643C213.287 520.513 214.088 519.498 215.045 518.58C216.021 517.642 217.125 516.9 218.355 516.353C219.605 515.787 220.953 515.504 222.398 515.504ZM240.299 516.119V548.873H231.363V516.119H240.299ZM235.846 503.287C237.174 503.287 238.316 503.599 239.273 504.224C240.23 504.83 240.709 505.972 240.709 507.652C240.709 509.312 240.23 510.465 239.273 511.109C238.316 511.734 237.174 512.047 235.846 512.047C234.498 512.047 233.346 511.734 232.389 511.109C231.451 510.465 230.982 509.312 230.982 507.652C230.982 505.972 231.451 504.83 232.389 504.224C233.346 503.599 234.498 503.287 235.846 503.287ZM268.307 515.504C271.803 515.504 274.615 516.461 276.744 518.375C278.873 520.269 279.938 523.316 279.938 527.515V548.873H271.002V529.742C271.002 527.398 270.572 525.631 269.713 524.439C268.873 523.248 267.545 522.652 265.729 522.652C262.994 522.652 261.129 523.58 260.133 525.435C259.137 527.291 258.639 529.967 258.639 533.463V548.873H249.703V516.119H256.529L257.73 520.308H258.229C258.932 519.176 259.801 518.258 260.836 517.554C261.891 516.851 263.053 516.334 264.322 516.002C265.611 515.67 266.939 515.504 268.307 515.504ZM298.717 563.287C294.146 563.287 290.65 562.486 288.229 560.885C285.826 559.302 284.625 557.076 284.625 554.205C284.625 552.232 285.24 550.582 286.471 549.254C287.701 547.926 289.508 546.978 291.891 546.412C290.973 546.021 290.172 545.386 289.488 544.508C288.805 543.609 288.463 542.662 288.463 541.666C288.463 540.416 288.824 539.381 289.547 538.56C290.27 537.72 291.314 536.9 292.682 536.099C290.963 535.357 289.596 534.166 288.58 532.525C287.584 530.885 287.086 528.951 287.086 526.724C287.086 524.342 287.604 522.32 288.639 520.66C289.693 518.98 291.217 517.701 293.209 516.822C295.221 515.943 297.662 515.504 300.533 515.504C301.139 515.504 301.842 515.543 302.643 515.621C303.443 515.699 304.176 515.787 304.84 515.885C305.523 515.982 305.982 516.06 306.217 516.119H317.643V520.66L312.516 521.978C312.984 522.701 313.336 523.472 313.57 524.293C313.805 525.113 313.922 525.982 313.922 526.9C313.922 530.416 312.691 533.16 310.23 535.133C307.789 537.086 304.391 538.062 300.035 538.062C299 538.004 298.023 537.926 297.105 537.828C296.656 538.179 296.314 538.551 296.08 538.941C295.846 539.332 295.729 539.742 295.729 540.172C295.729 540.601 295.904 540.963 296.256 541.256C296.627 541.529 297.174 541.744 297.896 541.9C298.639 542.037 299.557 542.105 300.65 542.105H306.217C309.811 542.105 312.545 542.877 314.42 544.42C316.314 545.963 317.262 548.228 317.262 551.217C317.262 555.045 315.66 558.013 312.457 560.123C309.273 562.232 304.693 563.287 298.717 563.287ZM299.098 557.457C301.227 557.457 303.053 557.252 304.576 556.842C306.119 556.451 307.301 555.885 308.121 555.142C308.941 554.42 309.352 553.551 309.352 552.535C309.352 551.715 309.107 551.06 308.619 550.572C308.15 550.103 307.428 549.771 306.451 549.576C305.494 549.381 304.264 549.283 302.76 549.283H298.131C297.037 549.283 296.051 549.459 295.172 549.81C294.312 550.162 293.629 550.65 293.121 551.275C292.613 551.92 292.359 552.662 292.359 553.502C292.359 554.732 292.945 555.699 294.117 556.402C295.309 557.105 296.969 557.457 299.098 557.457ZM300.533 532.613C302.213 532.613 303.443 532.095 304.225 531.06C305.006 530.025 305.396 528.619 305.396 526.842C305.396 524.869 304.986 523.394 304.166 522.418C303.365 521.422 302.154 520.924 300.533 520.924C298.893 520.924 297.662 521.422 296.842 522.418C296.021 523.394 295.611 524.869 295.611 526.842C295.611 528.619 296.012 530.025 296.812 531.06C297.633 532.095 298.873 532.613 300.533 532.613ZM339.352 548.873V506.041H348.434V541.373H365.807V548.873H339.352ZM386.08 515.504C389.107 515.504 391.715 516.09 393.902 517.261C396.09 518.414 397.779 520.094 398.971 522.301C400.162 524.508 400.758 527.203 400.758 530.386V534.722H379.635C379.732 537.242 380.484 539.224 381.891 540.67C383.316 542.095 385.289 542.808 387.809 542.808C389.898 542.808 391.812 542.594 393.551 542.164C395.289 541.734 397.076 541.09 398.912 540.23V547.144C397.291 547.945 395.592 548.531 393.814 548.902C392.057 549.273 389.918 549.459 387.398 549.459C384.117 549.459 381.207 548.853 378.668 547.642C376.148 546.431 374.166 544.586 372.721 542.105C371.295 539.625 370.582 536.5 370.582 532.73C370.582 528.902 371.227 525.719 372.516 523.179C373.824 520.621 375.641 518.707 377.965 517.437C380.289 516.148 382.994 515.504 386.08 515.504ZM386.139 521.861C384.4 521.861 382.955 522.418 381.803 523.531C380.67 524.644 380.016 526.392 379.84 528.775H392.379C392.359 527.447 392.115 526.265 391.646 525.23C391.197 524.195 390.514 523.375 389.596 522.769C388.697 522.164 387.545 521.861 386.139 521.861ZM421.441 515.445C425.836 515.445 429.205 516.402 431.549 518.316C433.893 520.23 435.064 523.14 435.064 527.047V548.873H428.824L427.096 544.42H426.861C425.924 545.592 424.967 546.549 423.99 547.291C423.014 548.033 421.891 548.58 420.621 548.931C419.352 549.283 417.809 549.459 415.992 549.459C414.059 549.459 412.32 549.088 410.777 548.345C409.254 547.603 408.053 546.47 407.174 544.947C406.295 543.404 405.855 541.451 405.855 539.088C405.855 535.611 407.076 533.052 409.518 531.412C411.959 529.752 415.621 528.834 420.504 528.658L426.188 528.482V527.047C426.188 525.328 425.738 524.068 424.84 523.267C423.941 522.467 422.691 522.066 421.09 522.066C419.508 522.066 417.955 522.291 416.432 522.74C414.908 523.189 413.385 523.756 411.861 524.439L408.902 518.404C410.641 517.486 412.584 516.763 414.732 516.236C416.9 515.709 419.137 515.445 421.441 515.445ZM426.188 533.697L422.73 533.814C419.84 533.892 417.828 534.41 416.695 535.367C415.582 536.324 415.025 537.584 415.025 539.146C415.025 540.513 415.426 541.49 416.227 542.076C417.027 542.642 418.072 542.926 419.361 542.926C421.275 542.926 422.887 542.359 424.195 541.226C425.523 540.094 426.188 538.482 426.188 536.392V533.697ZM462.574 515.504C463.023 515.504 463.541 515.533 464.127 515.592C464.732 515.631 465.221 515.689 465.592 515.767L464.918 524.146C464.625 524.049 464.205 523.98 463.658 523.941C463.131 523.883 462.672 523.853 462.281 523.853C461.129 523.853 460.006 524 458.912 524.293C457.838 524.586 456.871 525.064 456.012 525.728C455.152 526.373 454.469 527.232 453.961 528.306C453.473 529.361 453.229 530.66 453.229 532.203V548.873H444.293V516.119H451.061L452.379 521.627H452.818C453.463 520.513 454.264 519.498 455.221 518.58C456.197 517.642 457.301 516.9 458.531 516.353C459.781 515.787 461.129 515.504 462.574 515.504ZM490.143 515.504C493.639 515.504 496.451 516.461 498.58 518.375C500.709 520.269 501.773 523.316 501.773 527.515V548.873H492.838V529.742C492.838 527.398 492.408 525.631 491.549 524.439C490.709 523.248 489.381 522.652 487.564 522.652C484.83 522.652 482.965 523.58 481.969 525.435C480.973 527.291 480.475 529.967 480.475 533.463V548.873H471.539V516.119H478.365L479.566 520.308H480.064C480.768 519.176 481.637 518.258 482.672 517.554C483.727 516.851 484.889 516.334 486.158 516.002C487.447 515.67 488.775 515.504 490.143 515.504ZM524.479 515.504C527.506 515.504 530.113 516.09 532.301 517.261C534.488 518.414 536.178 520.094 537.369 522.301C538.561 524.508 539.156 527.203 539.156 530.386V534.722H518.033C518.131 537.242 518.883 539.224 520.289 540.67C521.715 542.095 523.688 542.808 526.207 542.808C528.297 542.808 530.211 542.594 531.949 542.164C533.688 541.734 535.475 541.09 537.311 540.23V547.144C535.689 547.945 533.99 548.531 532.213 548.902C530.455 549.273 528.316 549.459 525.797 549.459C522.516 549.459 519.605 548.853 517.066 547.642C514.547 546.431 512.564 544.586 511.119 542.105C509.693 539.625 508.98 536.5 508.98 532.73C508.98 528.902 509.625 525.719 510.914 523.179C512.223 520.621 514.039 518.707 516.363 517.437C518.688 516.148 521.393 515.504 524.479 515.504ZM524.537 521.861C522.799 521.861 521.354 522.418 520.201 523.531C519.068 524.644 518.414 526.392 518.238 528.775H530.777C530.758 527.447 530.514 526.265 530.045 525.23C529.596 524.195 528.912 523.375 527.994 522.769C527.096 522.164 525.943 521.861 524.537 521.861ZM564.703 515.504C565.152 515.504 565.67 515.533 566.256 515.592C566.861 515.631 567.35 515.689 567.721 515.767L567.047 524.146C566.754 524.049 566.334 523.98 565.787 523.941C565.26 523.883 564.801 523.853 564.41 523.853C563.258 523.853 562.135 524 561.041 524.293C559.967 524.586 559 525.064 558.141 525.728C557.281 526.373 556.598 527.232 556.09 528.306C555.602 529.361 555.357 530.66 555.357 532.203V548.873H546.422V516.119H553.189L554.508 521.627H554.947C555.592 520.513 556.393 519.498 557.35 518.58C558.326 517.642 559.43 516.9 560.66 516.353C561.91 515.787 563.258 515.504 564.703 515.504ZM596.52 539.146C596.52 541.373 595.992 543.258 594.938 544.801C593.902 546.324 592.35 547.486 590.279 548.287C588.209 549.068 585.631 549.459 582.545 549.459C580.26 549.459 578.297 549.312 576.656 549.019C575.035 548.726 573.395 548.238 571.734 547.554V540.172C573.512 540.972 575.416 541.636 577.447 542.164C579.498 542.672 581.295 542.926 582.838 542.926C584.576 542.926 585.816 542.672 586.559 542.164C587.32 541.636 587.701 540.953 587.701 540.113C587.701 539.566 587.545 539.078 587.232 538.648C586.939 538.199 586.295 537.701 585.299 537.154C584.303 536.588 582.74 535.855 580.611 534.957C578.561 534.097 576.871 533.228 575.543 532.349C574.234 531.47 573.258 530.435 572.613 529.244C571.988 528.033 571.676 526.5 571.676 524.644C571.676 521.617 572.848 519.342 575.191 517.818C577.555 516.275 580.709 515.504 584.654 515.504C586.686 515.504 588.619 515.709 590.455 516.119C592.311 516.529 594.215 517.183 596.168 518.082L593.473 524.527C591.852 523.824 590.318 523.248 588.873 522.799C587.447 522.349 585.992 522.125 584.508 522.125C583.199 522.125 582.213 522.301 581.549 522.652C580.885 523.004 580.553 523.541 580.553 524.263C580.553 524.791 580.719 525.26 581.051 525.67C581.402 526.08 582.066 526.539 583.043 527.047C584.039 527.535 585.494 528.17 587.408 528.951C589.264 529.713 590.875 530.513 592.242 531.353C593.609 532.174 594.664 533.199 595.406 534.429C596.148 535.64 596.52 537.213 596.52 539.146ZM551.642 634.521V628.418H564.752V634.521H551.642ZM567.755 634.521V628.418H580.865V634.521H567.755ZM613.409 624.829H627.569V643.335C625.698 643.953 623.753 644.45 621.734 644.824C619.716 645.182 617.429 645.361 614.874 645.361C611.326 645.361 608.315 644.661 605.841 643.261C603.367 641.862 601.487 639.795 600.201 637.06C598.915 634.326 598.272 630.965 598.272 626.977C598.272 623.234 598.989 619.995 600.421 617.26C601.869 614.526 603.977 612.41 606.744 610.913C609.527 609.415 612.921 608.667 616.925 608.667C618.813 608.667 620.676 608.87 622.516 609.277C624.355 609.684 626.023 610.213 627.521 610.864L625.006 616.919C623.915 616.365 622.67 615.901 621.271 615.527C619.871 615.153 618.406 614.966 616.876 614.966C614.679 614.966 612.766 615.47 611.139 616.479C609.527 617.488 608.274 618.904 607.379 620.727C606.5 622.534 606.061 624.666 606.061 627.124C606.061 629.451 606.378 631.518 607.013 633.325C607.647 635.115 608.648 636.523 610.016 637.549C611.383 638.558 613.165 639.062 615.362 639.062C616.437 639.062 617.34 639.013 618.072 638.916C618.821 638.802 619.521 638.688 620.172 638.574V631.128H613.409V624.829ZM646.759 617.065C649.282 617.065 651.454 617.553 653.277 618.53C655.1 619.49 656.508 620.89 657.501 622.729C658.494 624.568 658.99 626.815 658.99 629.468V633.081H641.388C641.469 635.18 642.096 636.832 643.268 638.037C644.456 639.225 646.1 639.819 648.199 639.819C649.941 639.819 651.536 639.64 652.984 639.282C654.433 638.924 655.922 638.387 657.452 637.671V643.432C656.101 644.1 654.685 644.588 653.204 644.897C651.739 645.206 649.957 645.361 647.857 645.361C645.123 645.361 642.698 644.857 640.582 643.847C638.482 642.838 636.83 641.3 635.626 639.233C634.438 637.166 633.844 634.562 633.844 631.421C633.844 628.231 634.381 625.578 635.455 623.462C636.546 621.33 638.059 619.734 639.996 618.677C641.933 617.602 644.187 617.065 646.759 617.065ZM646.808 622.363C645.359 622.363 644.155 622.827 643.194 623.755C642.25 624.682 641.705 626.139 641.559 628.125H652.008C651.992 627.018 651.788 626.033 651.397 625.171C651.023 624.308 650.453 623.624 649.688 623.12C648.94 622.615 647.979 622.363 646.808 622.363ZM673.028 656.885C669.22 656.885 666.306 656.217 664.288 654.883C662.286 653.564 661.285 651.709 661.285 649.316C661.285 647.672 661.798 646.297 662.823 645.19C663.849 644.083 665.354 643.294 667.34 642.822C666.575 642.497 665.908 641.968 665.338 641.235C664.768 640.486 664.483 639.697 664.483 638.867C664.483 637.825 664.785 636.963 665.387 636.279C665.989 635.579 666.86 634.896 667.999 634.228C666.567 633.61 665.427 632.617 664.581 631.25C663.751 629.883 663.336 628.271 663.336 626.416C663.336 624.43 663.767 622.746 664.63 621.362C665.509 619.962 666.778 618.896 668.438 618.164C670.115 617.431 672.149 617.065 674.542 617.065C675.047 617.065 675.632 617.098 676.3 617.163C676.967 617.228 677.577 617.301 678.131 617.383C678.701 617.464 679.083 617.529 679.278 617.578H688.8V621.362L684.527 622.461C684.918 623.063 685.211 623.706 685.406 624.389C685.602 625.073 685.699 625.797 685.699 626.562C685.699 629.492 684.674 631.779 682.623 633.423C680.589 635.05 677.757 635.864 674.127 635.864C673.264 635.815 672.451 635.75 671.686 635.669C671.311 635.962 671.026 636.271 670.831 636.596C670.636 636.922 670.538 637.264 670.538 637.622C670.538 637.98 670.685 638.281 670.978 638.525C671.287 638.753 671.743 638.932 672.345 639.062C672.963 639.176 673.728 639.233 674.64 639.233H679.278C682.273 639.233 684.552 639.876 686.114 641.162C687.693 642.448 688.482 644.336 688.482 646.826C688.482 650.016 687.148 652.49 684.479 654.248C681.826 656.006 678.009 656.885 673.028 656.885ZM673.346 652.026C675.12 652.026 676.642 651.855 677.911 651.513C679.197 651.188 680.182 650.716 680.865 650.097C681.549 649.495 681.891 648.771 681.891 647.925C681.891 647.241 681.687 646.696 681.28 646.289C680.89 645.898 680.287 645.622 679.474 645.459C678.676 645.296 677.651 645.215 676.397 645.215H672.54C671.629 645.215 670.807 645.361 670.074 645.654C669.358 645.947 668.788 646.354 668.365 646.875C667.942 647.412 667.73 648.03 667.73 648.73C667.73 649.756 668.219 650.561 669.195 651.147C670.188 651.733 671.572 652.026 673.346 652.026ZM674.542 631.323C675.942 631.323 676.967 630.892 677.618 630.029C678.269 629.166 678.595 627.995 678.595 626.513C678.595 624.87 678.253 623.641 677.569 622.827C676.902 621.997 675.893 621.582 674.542 621.582C673.175 621.582 672.149 621.997 671.466 622.827C670.782 623.641 670.44 624.87 670.44 626.513C670.44 627.995 670.774 629.166 671.441 630.029C672.125 630.892 673.159 631.323 674.542 631.323ZM704.571 617.065C707.094 617.065 709.267 617.553 711.09 618.53C712.913 619.49 714.321 620.89 715.313 622.729C716.306 624.568 716.803 626.815 716.803 629.468V633.081H699.2C699.282 635.18 699.908 636.832 701.08 638.037C702.268 639.225 703.912 639.819 706.012 639.819C707.753 639.819 709.348 639.64 710.797 639.282C712.245 638.924 713.735 638.387 715.265 637.671V643.432C713.914 644.1 712.498 644.588 711.017 644.897C709.552 645.206 707.77 645.361 705.67 645.361C702.936 645.361 700.51 644.857 698.395 643.847C696.295 642.838 694.643 641.3 693.438 639.233C692.25 637.166 691.656 634.562 691.656 631.421C691.656 628.231 692.193 625.578 693.268 623.462C694.358 621.33 695.872 619.734 697.809 618.677C699.745 617.602 702 617.065 704.571 617.065ZM704.62 622.363C703.172 622.363 701.967 622.827 701.007 623.755C700.063 624.682 699.518 626.139 699.371 628.125H709.82C709.804 627.018 709.601 626.033 709.21 625.171C708.836 624.308 708.266 623.624 707.501 623.12C706.752 622.615 705.792 622.363 704.62 622.363Z"
    fill="#F5F5F5" />
  <defs>
    <linearGradient id="paint0_linear_98_31391" x1="66.3078" y1="27.2705" x2="593.424" y2="1275.69"
      gradientUnits="userSpaceOnUse">
      <stop offset="0.0108786" stop-color="#0F689F" />
      <stop offset="1" stop-color="#3631A1" />
    </linearGradient>
  </defs>
</svg>