<svg width="60" height="60" viewBox="0 0 60 60" fill="none" xmlns="http://www.w3.org/2000/svg">
  <g clip-path="url(#clip0_28_1139)">
    <path
      d="M19.0635 23.3911C18.9035 23.0772 18.5905 22.8711 18.2395 22.8482L9.8272 22.2872C9.39127 22.2442 8.98826 22.5142 8.82924 22.9201L2.76473 38.419C2.60172 38.835 2.73473 39.3079 3.09074 39.5789C3.26875 39.7148 3.48273 39.7829 3.69566 39.7829C3.90659 39.7829 4.11765 39.7169 4.29565 39.583L9.32928 35.8083L12.2601 36.3942C12.7381 36.4893 13.216 36.2272 13.39 35.7703C14.9639 31.6476 16.8587 27.8139 19.0195 24.3772C19.2066 24.079 19.2236 23.704 19.0635 23.3911ZM11.828 34.2682L9.28228 33.7593C9.00432 33.7043 8.71428 33.7703 8.48635 33.9402L5.90755 35.874L10.4241 24.3309L16.4617 24.7329C14.7218 27.6778 13.1679 30.8754 11.828 34.2682Z"
      fill="#0088F0" />
    <path
      d="M37.7131 50.174L37.1522 41.7606C37.1281 41.4086 36.9221 41.0957 36.6082 40.9356C36.2952 40.7757 35.9202 40.7916 35.6223 40.9796C32.1845 43.1404 28.3518 45.0353 24.2292 46.6091C23.7732 46.7821 23.5092 47.2601 23.6053 47.739L24.1912 50.6698L20.4165 55.7024C20.1485 56.0604 20.1496 56.5524 20.4205 56.9084C20.6135 57.1623 20.9105 57.3033 21.2165 57.3033C21.3384 57.3033 21.4615 57.2803 21.5814 57.2363L37.0802 51.1717C37.4861 51.013 37.7421 50.6089 37.7131 50.174ZM24.1251 54.0907L26.0589 51.5119C26.229 51.2849 26.295 50.995 26.2389 50.716L25.73 48.1712C29.1237 46.8313 32.3205 45.2774 35.2652 43.5375L35.6682 49.574L24.1251 54.0907Z"
      fill="#0088F0" />
    <path
      d="M28.9977 30.0005H22.2602C21.8973 30.0005 21.5633 30.1975 21.3862 30.5145L12.9298 45.7093C12.7099 46.1053 12.7838 46.6012 13.1098 46.9153C13.3008 47.0993 13.5517 47.1952 13.8038 47.1952C13.9818 47.1952 14.1608 47.1483 14.3207 47.0503L29.5156 37.855C29.8145 37.6741 29.9975 37.3501 29.9975 37.0001V31.0004C29.9977 30.4485 29.5497 30.0005 28.9977 30.0005ZM27.9979 36.4371L16.5098 43.3895L22.8473 32.0013V32.0003H27.9979V36.4371Z"
      fill="#0088F0" />
    <path
      d="M59.9495 0.96377C59.9085 0.476861 59.5226 0.0908489 59.0355 0.0498337C58.7035 0.0238183 25.7751 -2.27503 11.5222 35.0562C11.3812 35.4252 11.4702 35.8411 11.7492 36.1201L16.5038 40.8747C16.7268 41.0978 17.0388 41.1997 17.3518 41.1577C17.6628 41.1128 17.9348 40.9248 18.0867 40.6497L22.8504 32.0005H27.998V36.4491L19.2967 41.9427C19.0397 42.1057 18.8707 42.3757 18.8367 42.6777C18.8028 42.9796 18.9087 43.2806 19.1237 43.4956L23.8783 48.2502C24.0693 48.4412 24.3243 48.5432 24.5853 48.5432C24.7053 48.5432 24.8263 48.5222 24.9423 48.4772C62.2753 34.2232 59.9775 1.29482 59.9495 0.96377ZM54.7038 18.7045C51.1951 27.3858 43.1657 39.188 24.8321 46.3764L21.4223 42.9666L29.5318 37.847C29.8217 37.663 29.9977 37.344 29.9977 37.001V31.0014C29.9977 30.4495 29.5497 30.0015 28.9977 30.0015H22.2582C21.8933 30.0015 21.5583 30.2005 21.3823 30.5195L16.9756 38.5208L13.6229 35.1671C26.135 3.24761 52.805 1.94169 57.9895 2.0147C58.0266 4.34659 57.8126 11.012 54.7038 18.7045Z"
      fill="#0088F0" />
    <path
      d="M17.1287 44.1644C16.9116 43.8765 16.5657 43.7364 16.2267 43.7724C16.2617 43.4325 16.1217 43.0875 15.8347 42.8704C14.3269 41.7306 12.381 41.3516 10.4942 41.8295C8.49133 42.3384 6.85342 43.7043 6.00147 45.5792L0.0900048 58.5852C-0.0829623 58.9651 -0.00198652 59.4122 0.292972 59.7061C0.483985 59.8981 0.73992 59.9991 0.999957 59.9991C1.13999 59.9991 1.28097 59.9691 1.41398 59.9091L14.42 53.9966C16.2938 53.1457 17.6598 51.5078 18.1687 49.5049C18.6476 47.6201 18.2687 45.6733 17.1287 44.1644ZM16.2308 49.013C15.8728 50.4239 14.9109 51.5768 13.593 52.1768L3.0138 56.9854L7.82243 46.4052C8.42137 45.0874 9.5753 44.1254 10.9862 43.7675C11.3572 43.6735 11.7301 43.6275 12.0981 43.6275C12.7211 43.6275 13.33 43.7605 13.8849 44.0194L12.933 45.7043C12.712 46.0953 12.7791 46.5863 13.097 46.9033C13.4149 47.2223 13.9059 47.2882 14.2959 47.0672L15.9808 46.1143C16.3907 46.9962 16.4838 48.015 16.2308 49.013Z"
      fill="#0088F0" />
    <path
      d="M59.9495 0.964767C59.9085 0.477857 59.5225 0.0918456 59.0356 0.0508304C58.6456 0.019776 49.3763 -0.682171 38.4751 4.3395C38.1782 4.47544 37.9671 4.74942 37.9091 5.07144C37.8511 5.39347 37.9551 5.72335 38.1861 5.95433L54.045 21.8132C54.234 22.0022 54.489 22.1061 54.7519 22.1061C54.8109 22.1061 54.87 22.1011 54.9289 22.0911C55.2509 22.0331 55.5239 21.8222 55.6608 21.5251C60.6835 10.624 59.9815 1.35371 59.9495 0.964767ZM54.4279 19.3663L40.633 5.57136C48.6134 2.20261 55.6018 1.97058 57.9906 2.01065C58.0306 4.40149 57.8056 11.368 54.4279 19.3663Z"
      fill="#0088F0" />
    <path
      d="M44.1606 15.8387C40.7979 12.476 35.3274 12.476 31.9646 15.8387C28.6018 19.2015 28.6018 24.672 31.9646 28.0348C33.6455 29.7166 35.8544 30.5566 38.0621 30.5566C40.271 30.5566 42.4788 29.7157 44.1606 28.0348C47.5234 24.672 47.5234 19.2014 44.1606 15.8387ZM42.7468 26.6208C40.164 29.2036 35.9613 29.2036 33.3786 26.6208C30.7958 24.038 30.7958 19.8354 33.3786 17.2526C34.6695 15.9617 36.3663 15.3157 38.0623 15.3157C39.7582 15.3157 41.455 15.9617 42.7469 17.2526C45.3296 19.8354 45.3296 24.038 42.7468 26.6208Z"
      fill="#0088F0" />
    <path
      d="M40.05 23.9251C38.954 25.023 37.1702 25.022 36.0732 23.9251C34.9773 22.8282 34.9773 21.0454 36.0732 19.9484C37.1692 18.8525 38.953 18.8515 40.05 19.9484C40.44 20.3393 41.0739 20.3393 41.4638 19.9484C41.8547 19.5575 41.8547 18.9255 41.4638 18.5345C39.5889 16.6587 36.5352 16.6587 34.6594 18.5345C32.7835 20.4103 32.7835 23.4632 34.6594 25.339C35.5973 26.2769 36.8303 26.7459 38.0621 26.7459C39.295 26.7459 40.5269 26.2769 41.4638 25.339C41.8547 24.948 41.8547 24.316 41.4638 23.9251C41.0738 23.5342 40.44 23.5342 40.05 23.9251Z"
      fill="#0088F0" />
  </g>
  <defs>
    <clipPath id="clip0_28_1139">
      <rect width="60" height="60" fill="white" />
    </clipPath>
  </defs>
</svg>